<svg width="256" height="256" viewBox="0 0 256 256" fill="none" xmlns="http://www.w3.org/2000/svg">
<path d="M62.6044 86.9533C73.6053 56.7286 107.025 41.1445 137.25 52.1454L94.6458 169.2C83.6449 199.425 50.2248 215.009 20.0001 204.008L62.6044 86.9533Z" fill="#0165FF"/>
<path d="M218.2 188.214C227.513 176.979 231.902 162.785 230.556 148.245H230.559C229.214 133.705 222.296 120.558 211.08 111.229C201.029 102.871 188.606 98.4772 175.689 98.6212L177.382 131.862C187.807 132.426 196.551 140.589 197.543 151.308C198.564 162.336 191.238 172.432 180.636 174.558C179.828 174.568 179.013 174.601 178.19 174.655C166.403 175.441 155.972 167.051 154.883 155.27C153.79 143.488 162.474 133.013 174.235 131.922C175.299 131.824 176.348 131.81 177.382 131.864L175.689 98.6237C174.189 98.641 172.686 98.7129 171.177 98.854C141.213 101.635 119.095 128.317 121.872 158.333C123.217 172.876 130.135 186.02 141.35 195.351C150.586 203.03 161.835 207.144 173.606 207.907C183.11 208.523 191.889 208.583 199.824 208.637C214.82 208.74 226.807 208.822 235 212.595L234.997 212.592C234.997 212.592 228.606 200.345 216.88 189.749C217.328 189.247 217.768 188.735 218.2 188.214Z" fill="#0165FF"/>
</svg>
